<?xml version="1.0" encoding="UTF-8"?>
<svg version="1.1" xmlns="http://www.w3.org/2000/svg" width="294" height="230">
<path d="M0 0 C17.92598008 15.3105502 25.6619592 34.18098435 27.6875 57.1875 C28.62851563 56.56101562 29.56953125 55.93453125 30.5390625 55.2890625 C31.79664321 54.4631886 33.05446878 53.63768748 34.3125 52.8125 C34.92996094 52.4 35.54742187 51.9875 36.18359375 51.5625 C43.74236709 46.62940582 50.66900354 45.15117482 59.6875 46.1875 C62.88341407 47.46345816 65.1111483 49.03479659 66.6875 52.1875 C69.06199567 69.59147395 60.35881774 86.42916095 53.19140625 101.79296875 C51.55247854 104.87346962 51.55247854 104.87346962 51.6875 107.1875 C52.335979 107.36812988 52.98445801 107.54875977 53.65258789 107.73486328 C96.31462082 119.69307455 96.31462082 119.69307455 107.6875 133.1875 C109.55289235 136.9182847 109.0989349 141.11613676 108.6875 145.1875 C104.71408904 155.66285617 94.15528332 160.90526215 84.47167969 165.32348633 C68.88711933 172.15311138 48.75880473 180.1875 31.6875 180.1875 C31.48447266 180.98800781 31.48447266 180.98800781 31.27734375 181.8046875 C27.92928912 193.39256519 19.59226683 204.18250518 9.0625 210.1875 C-4.24578771 215.6553898 -21.19596017 212.81348667 -34.3125 208.1875 C-34.94816895 207.97319336 -35.58383789 207.75888672 -36.23876953 207.53808594 C-42.3873056 205.45881236 -48.45314162 203.34923886 -54.0703125 200.05859375 C-64.66512236 193.89361693 -73.61570104 193.1634463 -85.75634766 193.19091797 C-92.77696448 193.18417016 -99.79459011 192.99554984 -106.8125 192.8125 C-107.56694397 192.79346619 -108.32138794 192.77443237 -109.09869385 192.75482178 C-162.19076576 191.35575182 -162.19076576 191.35575182 -177.5703125 177.09375 C-182.34781719 171.75532371 -183.79417526 168.40623758 -183.71875 161.203125 C-182.42067882 151.56744278 -174.50846768 144.44280994 -167.2109375 138.78125 C-159.62321586 133.12744329 -151.76808356 128.4293376 -143.3125 124.1875 C-143.6425 123.1975 -143.9725 122.2075 -144.3125 121.1875 C-144.80238853 115.62204509 -145.08064541 110.78069048 -142.625 105.6875 C-140.3125 103.1875 -140.3125 103.1875 -137.5 101.25 C-136.778125 100.569375 -136.05625 99.88875 -135.3125 99.1875 C-135.32297282 95.6957547 -135.32297282 95.6957547 -136.3125 92.1875 C-138.19483467 84.10857457 -139.13288821 74.17088138 -134.72265625 66.8046875 C-131.38329137 62.97505575 -127.06941069 60.7731369 -122.3125 59.1875 C-120.41779184 59.1189505 -118.5208166 59.10269628 -116.625 59.125 C-115.63113281 59.13402344 -114.63726562 59.14304687 -113.61328125 59.15234375 C-112.85402344 59.16394531 -112.09476562 59.17554687 -111.3125 59.1875 C-110.01056311 50.31065759 -109.35835271 44.14106594 -114.67578125 36.54296875 C-121.28197793 27.0357215 -121.75000776 15.37350624 -120.3125 4.1875 C-118.42992041 -2.51768772 -115.04158327 -6.95159606 -109.3125 -10.8125 C-103.83729797 -12.63756734 -98.46408829 -12.66636506 -93.1875 -10.1875 C-89.1239894 -7.91911457 -85.69677183 -4.98525484 -82.3125 -1.8125 C-81.46429688 -2.34359375 -80.61609375 -2.8746875 -79.7421875 -3.421875 C-54.57377702 -18.78059355 -23.77218613 -18.20691464 0 0 Z " fill="#FD8A8E" transform="translate(184.3125,14.8125)"/>
<path d="M0 0 C2.23776425 2.06679079 3.66549861 3.97102391 5.015625 6.6953125 C5.37591797 7.40695557 5.73621094 8.11859863 6.10742188 8.85180664 C6.67299805 9.97703735 6.67299805 9.97703735 7.25 11.125 C14.88156622 25.85472678 24.2750028 36.65289918 40 43 C48.2340313 45.04284186 55.29126567 44.77468522 62.80078125 40.625 C66.31164166 38.03082961 68.2138461 34.92953858 70 31 C70.36609375 30.27554688 70.7321875 29.55109375 71.109375 28.8046875 C72.35497383 24.88214382 72.29029286 21.2147253 72.25 17.125 C72.25773437 16.34769531 72.26546875 15.57039062 72.2734375 14.76953125 C72.25676109 9.80829977 71.58064015 5.70428617 70 1 C70.99 1.33 71.98 1.66 73 2 C73.12375 2.804375 73.2475 3.60875 73.375 4.4375 C73.684375 5.7059375 73.684375 5.7059375 74 7 C74.99 7.495 74.99 7.495 76 8 C76.75 10.9375 76.75 10.9375 77 14 C76.34 14.66 75.68 15.32 75 16 C88.98377171 18.7769192 105.63557921 20.03554487 119 14 C118.97679687 13.30132812 118.95359375 12.60265625 118.9296875 11.8828125 C118.91164062 10.97273438 118.89359375 10.06265625 118.875 9.125 C118.85179687 8.22007813 118.82859375 7.31515625 118.8046875 6.3828125 C119 4 119 4 121 2 C121.0309375 3.918125 121.0309375 3.918125 121.0625 5.875 C121.72675424 11.9495569 124.81479748 16.64178714 129 21 C132.22824584 22.65435028 133.94161568 23 137.625 23 C141 23 141 23 144 25 C144.33 24.01 144.66 23.02 145 22 C146.453125 20.60546875 146.453125 20.60546875 148.25 19.1875 C150.73061829 17.15512485 152.82136597 15.1391782 154.8125 12.625 C155.534375 11.75875 156.25625 10.8925 157 10 C157.66 10 158.32 10 159 10 C158.53234153 14.7190991 156.65065406 16.91832317 153.4375 20.3125 C152.61121094 21.19550781 151.78492188 22.07851562 150.93359375 22.98828125 C150.29550781 23.65214844 149.65742188 24.31601563 149 25 C150.20385567 28.61156701 151.7430694 29.45555721 155.03515625 31.19921875 C158.22532741 32.49938791 160.61349355 32.49258276 164 32 C172.31305443 27.84347278 177.32793042 19.9387797 181.640625 12.00390625 C183 10 183 10 186 9 C188.30566406 9.43383789 188.30566406 9.43383789 191.015625 10.22265625 C192.01255371 10.51084229 193.00948242 10.79902832 194.03662109 11.09594727 C195.09703613 11.41490967 196.15745117 11.73387207 197.25 12.0625 C198.87349365 12.54577759 198.87349365 12.54577759 200.52978516 13.03881836 C215.6597491 17.62382682 231.47016599 22.50588503 242 35 C243.86539235 38.7307847 243.4114349 42.92863676 243 47 C239.02658904 57.47535617 228.46778332 62.71776215 218.78417969 67.13598633 C203.19961933 73.96561138 183.07130473 82 166 82 C165.86464844 82.53367187 165.72929687 83.06734375 165.58984375 83.6171875 C162.24178912 95.20506519 153.90476683 105.99500518 143.375 112 C130.06671229 117.4678898 113.11653983 114.62598667 100 110 C99.36433105 109.78569336 98.72866211 109.57138672 98.07373047 109.35058594 C91.9251944 107.27131236 85.85935838 105.16173886 80.2421875 101.87109375 C69.64737764 95.70611693 60.69679896 94.9759463 48.55615234 95.00341797 C41.53553552 94.99667016 34.51790989 94.80804984 27.5 94.625 C26.36833405 94.59644928 26.36833405 94.59644928 25.21380615 94.56732178 C-27.87826576 93.16825182 -27.87826576 93.16825182 -43.2578125 78.90625 C-48.03531719 73.56782371 -49.48167526 70.21873758 -49.40625 63.015625 C-48.10817882 53.37994278 -40.19596768 46.25530994 -32.8984375 40.59375 C-25.31071586 34.93994329 -17.45558356 30.2418376 -9 26 C-9.495 24.515 -9.495 24.515 -10 23 C-10.48514482 17.48843667 -10.76737316 12.62328938 -8.375 7.5625 C-5.74094071 4.72048866 -3.06482629 2.36827486 0 0 Z " fill="#FEE31C" transform="translate(50,113)"/>
<path d="M0 0 C10.97496508 6.17777577 19.97975497 14.37570597 28 24 C28.66 24.33 29.32 24.66 30 25 C31.44353317 27.64647748 32.73336703 30.27081602 34 33 C34.56847656 34.04994141 34.56847656 34.04994141 35.1484375 35.12109375 C39.53472313 44.09586967 39.68769384 55.10262453 36.96484375 64.6171875 C33.86635802 71.53915283 29.82658224 75.71023751 23 79 C15.36011699 81.54662767 7.26897273 80.10422696 0 77 C-16.05725014 68.60747124 -24.36512828 55.32477526 -32.375 39.6875 C-32.70894775 39.04224365 -33.04289551 38.3969873 -33.38696289 37.73217773 C-38.03832466 28.38039173 -39.92368362 17.80431139 -37.3828125 7.49609375 C-35.08366129 2.13479868 -31.15917047 -0.53164945 -26 -3 C-17.20178852 -5.93273716 -8.20591424 -3.7395373 0 0 Z " fill="#8F071C" transform="translate(85,78)"/>
<path d="M0 0 C0.66 0.33 1.32 0.66 2 1 C2.4140625 3.28515625 2.4140625 3.28515625 2.625 6.0625 C2.69976562 6.98160156 2.77453125 7.90070313 2.8515625 8.84765625 C2.90054688 9.55792969 2.94953125 10.26820312 3 11 C3.94101563 10.37351562 4.88203125 9.74703125 5.8515625 9.1015625 C7.10914321 8.2756886 8.36696878 7.45018748 9.625 6.625 C10.24246094 6.2125 10.85992187 5.8 11.49609375 5.375 C19.05486709 0.44190582 25.98150354 -1.03632518 35 0 C38.19591407 1.27595816 40.4236483 2.84729659 42 6 C44.19843873 22.11355657 36.79931609 37.34870521 30.4375 51.75 C30.08631104 52.54680176 29.73512207 53.34360352 29.37329102 54.16455078 C26.77186544 59.83268786 23.58347803 64.90421181 20 70 C19.48590576 70.73694092 18.97181152 71.47388184 18.44213867 72.2331543 C14.85278614 77.31769987 10.65037693 82.17481153 5 85 C-1.24240301 85.89177186 -4.40127937 83.8291274 -9.27734375 80.3125 C-9.84582031 79.879375 -10.41429687 79.44625 -11 79 C-9.63855362 75.92165571 -8.0960709 74.01062271 -5.6875 71.6875 C2.32873269 62.59796419 3.89622173 50.63583316 3.36328125 38.9609375 C2.7597365 32.3803528 1.35923771 26.61779115 -1.6875 20.75 C-3.80898787 14.68860609 -3.2207784 8.35351173 -3 2 C-2.34 2 -1.68 2 -1 2 C-0.67 1.34 -0.34 0.68 0 0 Z " fill="#D10F32" transform="translate(209,61)"/>
<path d="M0 0 C0.99 0.33 1.98 0.66 3 1 C3.12375 1.804375 3.2475 2.60875 3.375 3.4375 C3.58125 4.283125 3.7875 5.12875 4 6 C4.66 6.33 5.32 6.66 6 7 C6.75 9.9375 6.75 9.9375 7 13 C6.34 13.66 5.68 14.32 5 15 C18.98377171 17.7769192 35.63557921 19.03554487 49 13 C48.97679687 12.30132812 48.95359375 11.60265625 48.9296875 10.8828125 C48.91164062 9.97273438 48.89359375 9.06265625 48.875 8.125 C48.85179687 7.22007813 48.82859375 6.31515625 48.8046875 5.3828125 C49 3 49 3 51 1 C51.020625 2.27875 51.04125 3.5575 51.0625 4.875 C51.72675424 10.9495569 54.81479748 15.64178714 59 20 C62.22824584 21.65435028 63.94161568 22 67.625 22 C71 22 71 22 74 24 C74.495 22.515 74.495 22.515 75 21 C76.453125 19.60546875 76.453125 19.60546875 78.25 18.1875 C80.73061829 16.15512485 82.82136597 14.1391782 84.8125 11.625 C85.534375 10.75875 86.25625 9.8925 87 9 C87.66 9 88.32 9 89 9 C88.53234153 13.7190991 86.65065406 15.91832317 83.4375 19.3125 C82.61121094 20.19550781 81.78492188 21.07851562 80.93359375 21.98828125 C80.29550781 22.65214844 79.65742188 23.31601563 79 24 C80.23263349 27.69790046 81.20052451 27.9354846 84.5625 29.6875 C85.38878906 30.12449219 86.21507812 30.56148437 87.06640625 31.01171875 C87.70449219 31.33785156 88.34257812 31.66398437 89 32 C89 32.66 89 33.32 89 34 C85.60816955 34.23663933 83.59309953 34.36772171 80.65625 32.546875 C77.70142522 30.8261241 75.56342608 30.4562843 72.1875 30.0625 C66.49344801 29.22101448 60.56683873 27.97453759 56.64428711 23.42895508 C54.86867537 21.56675421 54.86867537 21.56675421 51.0703125 22.0390625 C49.41982783 22.21624464 47.77136359 22.41291489 46.125 22.625 C44.81414429 22.77787476 44.81414429 22.77787476 43.47680664 22.93383789 C40.6487283 23.27147761 37.82475031 23.63565436 35 24 C33.03776655 24.23572813 31.07552698 24.47140533 29.11328125 24.70703125 C27.2210538 24.94817546 25.32911529 25.19159991 23.4375 25.4375 C22.5398291 25.54723145 21.6421582 25.65696289 20.71728516 25.77001953 C19.88116699 25.88587402 19.04504883 26.00172852 18.18359375 26.12109375 C17.44681396 26.2183374 16.71003418 26.31558105 15.95092773 26.41577148 C12.74248115 27.37657898 11.38277626 29.30013846 9.81640625 32.1640625 C9.40261719 32.97617188 8.98882812 33.78828125 8.5625 34.625 C4.83053077 41.01728987 -0.64267778 45.33435738 -7 49 C-8.32 49 -9.64 49 -11 49 C-10.979375 48.21625 -10.95875 47.4325 -10.9375 46.625 C-10.81315937 44.01885039 -10.81315937 44.01885039 -12 42 C-11.49210937 41.77828125 -10.98421875 41.5565625 -10.4609375 41.328125 C-4.65271611 38.32612293 -1.7609244 34.57419856 0.9375 28.6640625 C3.64377913 19.33137933 3.00442557 9.17076677 0 0 Z " fill="#F57B0F" transform="translate(120,114)"/>
<path d="M0 0 C2.5821168 2.18865138 3.43932878 3.88041217 3.75 7.25 C3.34161838 12.30059719 0.90539268 15.44600387 -2.10546875 19.3828125 C-7.19175029 26.13172766 -11.30720455 32.55742729 -12.125 41.0625 C-13.29240239 43.8240443 -14.66386949 46.44605699 -16.125 49.0625 C-19.125 48.0625 -19.125 48.0625 -20.51171875 45.97265625 C-24.79332168 36.59941741 -24.62869681 28.13643627 -24.125 18.0625 C-24.455 18.0625 -24.785 18.0625 -25.125 18.0625 C-25.55048626 10.97106229 -24.90719726 6.38318706 -20.1875 0.75 C-14.91119407 -3.56697758 -5.72291403 -3.39178815 0 0 Z " fill="#FE9DA6" transform="translate(92.125,6.9375)"/>
<path d="M0 0 C0.66 0.33 1.32 0.66 2 1 C2.4140625 3.28515625 2.4140625 3.28515625 2.625 6.0625 C2.69976562 6.98160156 2.77453125 7.90070313 2.8515625 8.84765625 C2.90054688 9.55792969 2.94953125 10.26820312 3 11 C3.94101563 10.37351562 4.88203125 9.74703125 5.8515625 9.1015625 C7.10914321 8.2756886 8.36696878 7.45018748 9.625 6.625 C10.24246094 6.2125 10.85992187 5.8 11.49609375 5.375 C19.05486709 0.44190582 25.98150354 -1.03632518 35 0 C38.19591407 1.27595816 40.4236483 2.84729659 42 6 C44.19843873 22.11355657 36.79931609 37.34870521 30.4375 51.75 C30.08631104 52.54680176 29.73512207 53.34360352 29.37329102 54.16455078 C26.77186544 59.83268786 23.58347803 64.90421181 20 70 C19.48574463 70.73702148 18.97148926 71.47404297 18.44165039 72.23339844 C15.15929724 76.88412505 11.48008637 80.50076094 7 84 C6.34 82.68 5.68 81.36 5 80 C5.61875 79.814375 6.2375 79.62875 6.875 79.4375 C9.56292166 77.61920005 9.60732253 76.08874998 10.31640625 73.0390625 C11.1300348 70.61212477 12.32549751 68.89354674 13.8125 66.8125 C16.81648776 62.52005484 18.66733394 58.17050223 20.58203125 53.3125 C22.19972968 49.53341387 24.088117 45.97643762 26.0625 42.375 C29.15251294 36.715948 31.80228181 31.07264238 34 25 C34.61875 23.576875 34.61875 23.576875 35.25 22.125 C36.43882843 17.17154822 36.51557882 12.06480374 36 7 C33.64737508 4.64737508 32.98269013 4.60341622 29.75 4.4375 C22.29438134 4.57817205 16.24404669 8.30038346 10 12 C9.19175781 12.46664062 8.38351563 12.93328125 7.55078125 13.4140625 C5.49924176 14.83723999 4.26394478 15.84249719 3 18 C2.45570378 21.74268447 2.57962633 25.24999999 3 29 C-0.41121633 27.29439184 -0.95037053 23.86590283 -2.1796875 20.41015625 C-3.64843538 14.30436149 -3.30348252 8.24668189 -3 2 C-2.34 2 -1.68 2 -1 2 C-0.67 1.34 -0.34 0.68 0 0 Z " fill="#AD0B26" transform="translate(209,61)"/>
<path d="M0 0 C4.89929033 3.13554581 8.79228604 4.52400125 14.515625 5.50390625 C17.54027487 6.10788508 20.25098486 7.12424953 23.10546875 8.26953125 C26.01650076 9.39192916 28.99010692 10.18482062 32 11 C32 10.34 32 9.68 32 9 C33.32 9 34.64 9 36 9 C36 11.66666667 36 14.33333333 36 17 C35.34 17.33 34.68 17.66 34 18 C33.34 17.67 32.68 17.34 32 17 C32 16.34 32 15.68 32 15 C30.865625 14.690625 29.73125 14.38125 28.5625 14.0625 C25 13 25 13 24 12 C21.2965852 11.46022423 18.58104449 11.03533013 15.859375 10.59765625 C13 10 13 10 10.71875 9.0703125 C-2.07752751 4.0326975 -19.71184036 1.1704181 -32.8046875 6.359375 C-35.67758037 7.83445447 -36.99953275 8.63479361 -38.8125 11.1875 C-43.95895005 17.67230301 -50.04097572 22.62512985 -58 25 C-59.7325 25.7734375 -59.7325 25.7734375 -61.5 26.5625 C-68.49674382 29.43616264 -72.77597541 28.88898943 -79.6875 26.4375 C-80.47825928 26.16446045 -81.26901855 25.8914209 -82.08374023 25.61010742 C-88.31426603 23.390868 -94.66135061 20.97890988 -100 17 C-100.33 16.01 -100.66 15.02 -101 14 C-102.32052572 13.61907912 -103.65706498 13.29225744 -105 13 C-106.921875 11.80859375 -106.921875 11.80859375 -108.75 10.4375 C-109.36359375 9.98246094 -109.9771875 9.52742187 -110.609375 9.05859375 C-111.06828125 8.70925781 -111.5271875 8.35992187 -112 8 C-111.67 7.01 -111.34 6.02 -111 5 C-107.54383828 5.58360625 -105.96315268 6.74055227 -103.5 9.1875 C-94.92619447 16.98918045 -85.58343803 20.20426765 -74.1875 20.0625 C-73.49462891 20.05798828 -72.80175781 20.05347656 -72.08789062 20.04882812 C-70.39188932 20.03713156 -68.69593297 20.01919924 -67 20 C-67.33 21.98 -67.66 23.96 -68 26 C-58.81767803 22.55662926 -53.05906884 18.12330058 -48.421875 9.3671875 C-44.92075041 3.53839216 -44.92075041 3.53839216 -41.00195312 2.43994141 C-38.46421803 1.990836 -35.93584864 1.66454723 -33.375 1.375 C-32.45017822 1.25874268 -31.52535645 1.14248535 -30.57250977 1.02270508 C-28.65979411 0.78527015 -26.74610043 0.55559124 -24.83154297 0.33349609 C-22.13476703 0.01587272 -19.44490796 -0.33628928 -16.75390625 -0.69921875 C-15.14861172 -0.90500943 -13.54315008 -1.1095021 -11.9375 -1.3125 C-10.8235083 -1.46356201 -10.8235083 -1.46356201 -9.68701172 -1.61767578 C-5.82264538 -2.07024301 -3.26017262 -2.24090026 0 0 Z " fill="#FEB418" transform="translate(177,137)"/>
<path d="M0 0 C6.91240294 4.43420471 12.99707798 9.60315998 18.92578125 15.26953125 C18.26578125 15.92953125 17.60578125 16.58953125 16.92578125 17.26953125 C16.27351563 16.66625 15.62125 16.06296875 14.94921875 15.44140625 C9.42735487 10.2953583 9.42735487 10.2953583 3.36328125 5.83203125 C0.92578125 4.26953125 0.92578125 4.26953125 -0.07421875 2.26953125 C-2.05310836 1.54259221 -4.05376433 0.87136874 -6.07421875 0.26953125 C-5.84734375 0.86765625 -5.62046875 1.46578125 -5.38671875 2.08203125 C-5.23203125 3.16484375 -5.23203125 3.16484375 -5.07421875 4.26953125 C-5.54859375 4.72328125 -6.02296875 5.17703125 -6.51171875 5.64453125 C-8.42100606 7.27806145 -8.42100606 7.27806145 -8.26171875 10.45703125 C-8.19984375 11.38515625 -8.13796875 12.31328125 -8.07421875 13.26953125 C-7.41421875 13.26953125 -6.75421875 13.26953125 -6.07421875 13.26953125 C-4.07421875 16.26953125 -4.07421875 16.26953125 -4.07421875 20.26953125 C-8.10001594 18.86956935 -11.03057961 16.94020306 -14.38671875 14.33203125 C-23.15747202 7.88845118 -29.19766603 6.78008638 -40.07421875 7.26953125 C-37.97015005 1.57616887 -35.24876345 -1.46923282 -29.94921875 -4.54296875 C-19.85104359 -8.3379633 -9.00610308 -5.0695091 0 0 Z " fill="#DE0F36" transform="translate(88.07421875,79.73046875)"/>
<path d="M0 0 C4.08667584 0.76031178 5.361335 3.20459959 7.6875 6.5 C9.16139686 10.92169059 8.95304775 15.24237757 9 19.875 C9.02900391 20.82117188 9.05800781 21.76734375 9.08789062 22.7421875 C9.12820382 27.158033 9.12690721 29.7639699 6.82421875 33.62109375 C4.6875 35.5 4.6875 35.5 2.1875 36.1875 C-0.81668522 35.36134907 -1.92072166 34.12876975 -3.46484375 31.453125 C-6.84066612 23.67473245 -8.06208942 12.86387283 -5.421875 4.76953125 C-4.0231909 1.90813878 -3.16725618 0.68481215 0 0 Z " fill="#101622" transform="translate(138.3125,9.5)"/>
<path d="M0 0 C2.4375 0.9375 2.4375 0.9375 3.5703125 2.953125 C4.71634974 6.89714504 4.77756494 10.537332 4.75 14.625 C4.74798584 15.42284912 4.74597168 16.22069824 4.74389648 17.04272461 C4.50932348 30.86567652 4.50932348 30.86567652 0.4375 34.9375 C-1.9375 35.25 -1.9375 35.25 -4.5625 34.9375 C-8.68269467 31.27510474 -9.30079935 25.55060053 -9.82421875 20.32421875 C-10.09992679 13.60264688 -8.99152542 7.79780766 -5.5625 1.9375 C-2.5625 -0.0625 -2.5625 -0.0625 0 0 Z " fill="#191A25" transform="translate(114.5625,16.0625)"/>
<path d="M0 0 C4.32389485 2.40505798 7.59022548 5.78318834 10.875 9.4375 C9.5 11.4375 9.5 11.4375 7.875 13.4375 C7.215 13.4375 6.555 13.4375 5.875 13.4375 C5.38 9.4775 5.38 9.4775 4.875 5.4375 C4.111875 5.14875 3.34875 4.86 2.5625 4.5625 C-0.125 3.4375 -0.125 3.4375 -3.125 1.4375 C-9.17448214 0.74027155 -14.86972301 0.9056179 -19.8125 4.75 C-23.44460014 9.41984303 -23.31720614 13.76741878 -23.125 19.4375 C-22.795 19.4375 -22.465 19.4375 -22.125 19.4375 C-22.18300781 20.66984375 -22.24101563 21.9021875 -22.30078125 23.171875 C-22.62741022 33.20405043 -22.63758104 41.65077992 -17.125 50.4375 C-16.465 50.7675 -15.805 51.0975 -15.125 51.4375 C-14.465 50.1175 -13.805 48.7975 -13.125 47.4375 C-13.455 55.3575 -13.785 63.2775 -14.125 71.4375 C-15.115 71.1075 -16.105 70.7775 -17.125 70.4375 C-17.05539063 69.39851563 -16.98578125 68.35953125 -16.9140625 67.2890625 C-16.53287945 59.11032831 -16.70537417 53.67664278 -21.5234375 46.7578125 C-28.08960798 37.24487284 -28.56075844 25.6098938 -27.125 14.4375 C-25.24242041 7.73231228 -21.85408327 3.29840394 -16.125 -0.5625 C-10.67444182 -2.37935273 -5.27894041 -2.40793773 0 0 Z " fill="#FE8388" transform="translate(91.125,4.5625)"/>
<path d="M0 0 C0.66 0 1.32 0 2 0 C2.32793294 6.94241021 1.36473348 12.28361151 -0.9375 18.8125 C-1.24743896 19.71323242 -1.55737793 20.61396484 -1.87670898 21.54199219 C-4.17749093 28.05926754 -6.76013193 34.43316222 -9.5625 40.75 C-9.91368896 41.54639893 -10.26487793 42.34279785 -10.62670898 43.16333008 C-13.22717599 48.83236008 -16.41632447 53.90393095 -20 59 C-20.77138306 60.10553223 -20.77138306 60.10553223 -21.55834961 61.23339844 C-24.84070276 65.88412505 -28.51991363 69.50076094 -33 73 C-33.66 71.68 -34.32 70.36 -35 69 C-33.02 68.01 -33.02 68.01 -31 67 C-31 66.34 -31 65.68 -31 65 C-28.7515923 62.62668076 -26.41487802 60.38384384 -24.015625 58.1640625 C-21.83793198 55.82599673 -20.48466299 53.57408722 -19 50.75 C-18.48953125 49.78320312 -17.9790625 48.81640625 -17.453125 47.8203125 C-16.73382813 46.42425781 -16.73382813 46.42425781 -16 45 C-15.60296875 44.23429687 -15.2059375 43.46859375 -14.796875 42.6796875 C-13.01386915 39.18020586 -11.3808184 35.6821824 -10 32 C-9.34 32 -8.68 32 -8 32 C-7.896875 31.360625 -7.79375 30.72125 -7.6875 30.0625 C-7 27 -7 27 -5.6875 23.3125 C-3.08048785 15.74958356 -1.66022752 7.81233965 0 0 Z " fill="#7A0715" transform="translate(249,72)"/>
<path d="M0 0 C15.23224906 -1.07945072 26.5281521 4.82894764 37.9765625 14.51953125 C40.3535199 16.6454016 42.69479549 18.79679569 45 21 C44.34 21.66 43.68 22.32 43 23 C42.34773438 22.39671875 41.69546875 21.7934375 41.0234375 21.171875 C35.50157362 16.02582705 35.50157362 16.02582705 29.4375 11.5625 C27 10 27 10 26 8 C24.02111039 7.27306096 22.02045442 6.60183749 20 6 C20.33 7.32 20.66 8.64 21 10 C19 12.125 19 12.125 16 14 C11.8771954 13.91836031 8.76722479 12.54267119 5.4375 10.1875 C4 8 4 8 4.125 5.3125 C5 3 5 3 7 2 C4.69 2 2.38 2 0 2 C0 1.34 0 0.68 0 0 Z " fill="#F12446" transform="translate(62,74)"/>
<path d="M0 0 C1.6949447 5.08483409 -0.39857247 10.01417908 -2 15 C-3.05859375 17.09765625 -3.05859375 17.09765625 -4.125 18.8125 C-6.20164485 21.86895209 -6.20164485 21.86895209 -6.4375 25.3125 C-7.22597576 30.48139662 -9.48293669 34.4611446 -12 39 C-12.46792969 39.85207031 -12.93585938 40.70414063 -13.41796875 41.58203125 C-16.70113881 47.31217524 -20.46933595 52.20124932 -25 57 C-25.60546875 55.140625 -25.60546875 55.140625 -26 53 C-24.71937515 51.2925002 -23.37368345 49.63356951 -22 48 C-19.78143391 44.12388453 -18.01011828 40.03672283 -16.25 35.9375 C-14.39393366 31.68033196 -12.2172653 27.63813168 -10 23.5625 C-5.8758661 15.95395559 -2.6094707 8.26332389 0 0 Z " fill="#BA0B2A" transform="translate(245,80)"/>
<path d="M0 0 C1.23234375 -0.02578125 2.4646875 -0.0515625 3.734375 -0.078125 C7.42997189 0.26679738 9.27971098 1.09597361 12.25 3.25 C11.375 8.125 11.375 8.125 10.25 9.25 C8.00365446 9.40289263 5.75136826 9.47197467 3.5 9.5 C2.26765625 9.52578125 1.0353125 9.5515625 -0.234375 9.578125 C-3.92997189 9.23320262 -5.77971098 8.40402639 -8.75 6.25 C-7.58162308 -0.25952854 -6.61217859 0.08230928 0 0 Z " fill="#FF6B7D" transform="translate(162.75,36.75)"/>
<path d="M0 0 C0.33 0 0.66 0 1 0 C1.020625 1.27875 1.04125 2.5575 1.0625 3.875 C1.72675424 9.9495569 4.81479748 14.64178714 9 19 C12.22824584 20.65435028 13.94161568 21 17.625 21 C21 21 21 21 24 23 C24.33 22.01 24.66 21.02 25 20 C26.453125 18.60546875 26.453125 18.60546875 28.25 17.1875 C30.73061829 15.15512485 32.82136597 13.1391782 34.8125 10.625 C35.534375 9.75875 36.25625 8.8925 37 8 C37.66 8 38.32 8 39 8 C38.50185032 12.54867826 36.85018726 14.82416453 33.8125 18.1875 C33.05582031 19.04730469 32.29914063 19.90710938 31.51953125 20.79296875 C26.73297127 24.98584687 21.53223986 25.47531772 15.38671875 25.30078125 C9.81152559 24.59817917 6.70988487 20.90363856 3.1875 16.875 C-0.3422245 12.17649256 -1.35330542 7.84058029 -1 2 C-0.67 1.34 -0.34 0.68 0 0 Z " fill="#FD6E4E" transform="translate(170,115)"/>
<path d="M0 0 C7.23809524 -0.36190476 7.23809524 -0.36190476 10.5 1.1875 C12 3 12 3 12.3125 5.625 C12 8 12 8 11 9 C9.25269861 9.15831254 7.50169941 9.27664255 5.75 9.375 C1.42768613 9.71786235 -1.51107856 10.23292438 -5 13 C-5.66 12.34 -6.32 11.68 -7 11 C-6.8125 7.5 -6.8125 7.5 -6 4 C-3 2 -3 2 0 2 C0 1.34 0 0.68 0 0 Z " fill="#95180B" transform="translate(126,48)"/>
<path d="M0 0 C0.495 0.99 0.495 0.99 1 2 C0.113125 2.12375 -0.77375 2.2475 -1.6875 2.375 C-2.3165625 2.46652344 -2.945625 2.55804688 -3.59375 2.65234375 C-5.46765065 2.92308589 -7.34294814 3.18416643 -9.21875 3.44140625 C-10.93578125 3.68697266 -10.93578125 3.68697266 -12.6875 3.9375 C-14.33298828 4.16759766 -14.33298828 4.16759766 -16.01171875 4.40234375 C-18.73086503 4.94617301 -20.6163968 5.63640718 -23 7 C-23.680625 7.309375 -24.36125 7.61875 -25.0625 7.9375 C-27.09606201 9.05267917 -28.44694668 10.29164135 -30 12 C-29.34 12.66 -28.68 13.32 -28 14 C-30.64 14.99 -33.28 15.98 -36 17 C-36.33 16.34 -36.66 15.68 -37 15 C-36.34 15 -35.68 15 -35 15 C-34.34 13.35 -33.68 11.7 -33 10 C-35.31 11.65 -37.62 13.3 -40 15 C-40.66 14.67 -41.32 14.34 -42 14 C-31.60514774 2.93758842 -14.76559054 -1.12618911 0 0 Z " fill="#FFA0A9" transform="translate(144,2)"/>
<path d="M0 0 C0.33 0 0.66 0 1 0 C1.00257812 0.80179688 1.00515625 1.60359375 1.0078125 2.4296875 C1.39042242 13.67841926 4.07265567 26.22856207 10 36 C10.66 36.33 11.32 36.66 12 37 C12.66 35.68 13.32 34.36 14 33 C13.67 40.92 13.34 48.84 13 57 C12.01 56.67 11.02 56.34 10 56 C10.06960937 54.96101563 10.13921875 53.92203125 10.2109375 52.8515625 C10.59212055 44.67282831 10.41962583 39.23914278 5.6015625 32.3203125 C-1.25526166 22.38627945 -0.4301829 11.53129174 0 0 Z " fill="#E76866" transform="translate(64,19)"/>
<path d="M0 0 C-0.66 0.99 -1.32 1.98 -2 3 C-2 2.34 -2 1.68 -2 1 C-17.21435679 0.32213262 -30.54017557 1.67131601 -43.86328125 9.73046875 C-46 11 -46 11 -49 12 C-49.68567815 13.32365694 -50.34816772 14.65935206 -51 16 C-52.49942868 17.78632297 -54.04497953 19.53454921 -55.625 21.25 C-56.44226563 22.14203125 -57.25953125 23.0340625 -58.1015625 23.953125 C-58.72804688 24.62859375 -59.35453125 25.3040625 -60 26 C-60.66 25.01 -61.32 24.02 -62 23 C-61.360625 22.195625 -60.72125 21.39125 -60.0625 20.5625 C-57.40147674 16.64148693 -57.20593653 12.63357199 -57 8 C-56.67 8 -56.34 8 -56 8 C-55.67 10.64 -55.34 13.28 -55 16 C-54.58492188 15.57589844 -54.16984375 15.15179687 -53.7421875 14.71484375 C-39.7059113 1.35395323 -18.95555463 -4.60880152 0 0 Z " fill="#FE9198" transform="translate(152,2)"/>
<path d="M0 0 C1 1 1 1 1.3125 3.3125 C1 6 1 6 -0.6875 8.1875 C-4.67754297 11.31483097 -7.95181027 12.28846798 -13 12 C-13.8125 9.875 -13.8125 9.875 -14 7 C-9.59310486 0.80652575 -7.47705239 -0.27189281 0 0 Z " fill="#FF6679" transform="translate(101,49)"/>
<path d="M0 0 C0 0.99 0 1.98 0 3 C-23.41195504 8.7476158 -23.41195504 8.7476158 -35 8 C-35.99 7.34 -36.98 6.68 -38 6 C-34.64638806 3.7642587 -32.9350764 3.59311652 -28.9765625 3.21875 C-27.790625 3.09886719 -26.6046875 2.97898438 -25.3828125 2.85546875 C-24.14273438 2.73816406 -22.90265625 2.62085938 -21.625 2.5 C-19.17903498 2.26717279 -16.7336791 2.0278328 -14.2890625 1.78125 C-13.20318848 1.67876953 -12.11731445 1.57628906 -10.99853516 1.47070312 C-7.98634969 1.11660989 -7.98634969 1.11660989 -5.29443359 -0.11132812 C-3 -1 -3 -1 0 0 Z " fill="#E8650A" transform="translate(172,128)"/>
<path d="M0 0 C1 3 1 3 0.22265625 4.59375 C-0.16019531 5.2228125 -0.54304687 5.851875 -0.9375 6.5 C-3.37255492 11.57232894 -3.38795857 16.35568783 -3.375 21.875 C-3.37681274 23.1424707 -3.37681274 23.1424707 -3.37866211 24.43554688 C-3.34149578 29.50942332 -3.34149578 29.50942332 -1 34 C-0.22269531 34.30679688 0.55460938 34.61359375 1.35546875 34.9296875 C4.44069652 36.17836166 6.02945083 37.72586358 8.3125 40.125 C9.00988281 40.84945312 9.70726562 41.57390625 10.42578125 42.3203125 C10.94527344 42.87460938 11.46476562 43.42890625 12 44 C9.16269724 44.85665886 8.13898252 45.04015051 5.1875 44.1875 C0.46937528 40.94957127 -2.59631315 37.20450458 -5 32 C-5.54183492 27.91945562 -5.44224815 24.08553052 -5 20 C-5.99 20 -6.98 20 -8 20 C-8 19.34 -8 18.68 -8 18 C-7.34 18 -6.68 18 -6 18 C-5.9071875 16.329375 -5.9071875 16.329375 -5.8125 14.625 C-5.16800296 9.17607052 -2.63164357 4.73890059 0 0 Z " fill="#FE8074" transform="translate(176,92)"/>
<path d="M0 0 C5 5 5 5 6.625 6.6875 C9.72065928 9.6424475 11.73703442 10.25667572 15.875 10.1875 C16.76316406 10.1771875 17.65132812 10.166875 18.56640625 10.15625 C21.09644867 10.08153894 21.09644867 10.08153894 23.8125 9.1875 C24.534375 9.125625 25.25625 9.06375 26 9 C28.4375 11.25 28.4375 11.25 31 14 C34.16645474 15.79320824 34.16645474 15.79320824 37 17 C37 17.66 37 18.32 37 19 C33.60816955 19.23663933 31.59309953 19.36772171 28.65625 17.546875 C25.70142522 15.8261241 23.56342608 15.4562843 20.1875 15.0625 C12.47423184 13.87948341 7.38266012 12.142973 2.5 5.875 C0 2.35106383 0 2.35106383 0 0 Z " fill="#FB6B2C" transform="translate(172,129)"/>
<path d="M0 0 C0.556875 0.37125 1.11375 0.7425 1.6875 1.125 C-1.17492451 3.98742451 -4.26701378 3.72152361 -8.125 4.0625 C-9.74765256 4.22664838 -11.37004033 4.39343024 -12.9921875 4.5625 C-14.28141113 4.69591797 -14.28141113 4.69591797 -15.59667969 4.83203125 C-20.32372039 5.34196013 -25.0373496 5.93439213 -29.75 6.5625 C-30.65532471 6.67263428 -31.56064941 6.78276855 -32.4934082 6.89624023 C-33.33991943 7.01169189 -34.18643066 7.12714355 -35.05859375 7.24609375 C-35.80810303 7.3433374 -36.5576123 7.44058105 -37.32983398 7.54077148 C-42.43957195 9.04644849 -44.45873629 14.64129273 -46.91015625 18.9453125 C-48.3125 21.125 -48.3125 21.125 -50.3125 22.125 C-48.97916667 18.79166667 -47.64583333 15.45833333 -46.3125 12.125 C-45.6525 12.125 -44.9925 12.125 -44.3125 12.125 C-43.8484375 10.6709375 -43.8484375 10.6709375 -43.375 9.1875 C-42.3125 6.125 -42.3125 6.125 -41.3125 5.125 C-39.37808746 4.95892961 -37.43921149 4.84481593 -35.5 4.75 C-29.19822524 4.34155164 -22.99697794 3.60904487 -16.75 2.6875 C-15.89365967 2.5652002 -15.03731934 2.44290039 -14.1550293 2.31689453 C-9.78602076 1.65310562 -3.8904542 -1.47206375 0 0 Z " fill="#FB9014" transform="translate(173.3125,132.875)"/>
<path d="M0 0 C9.26281411 -0.70949214 17.41839534 1.44015659 25 7 C25 7.66 25 8.32 25 9 C25.99 9 26.98 9 28 9 C28 9.66 28 10.32 28 11 C30.97 11.495 30.97 11.495 34 12 C34.495 14.475 34.495 14.475 35 17 C30.97420281 15.6000381 28.04363914 13.67067181 24.6875 11.0625 C15.91674673 4.61891993 9.87655272 3.51055513 -1 4 C-0.67 2.68 -0.34 1.36 0 0 Z " fill="#BF0B2C" transform="translate(49,83)"/>
<path d="M0 0 C-0.58861816 0.25974609 -1.17723633 0.51949219 -1.78369141 0.78710938 C-4.15238277 2.08339255 -5.61610202 3.44497005 -7.4609375 5.40625 C-8.09773438 6.06753906 -8.73453125 6.72882813 -9.390625 7.41015625 C-10.70984329 8.79949047 -12.02498215 10.19271006 -13.3359375 11.58984375 C-16.98961804 15.36875124 -19.67401189 17.87873935 -25 19 C-25 16 -25 16 -22.625 13.3125 C-20 11 -20 11 -18 11 C-17.773125 10.443125 -17.54625 9.88625 -17.3125 9.3125 C-14.9941308 5.22775426 -12.3128801 2.57438504 -8 0.6875 C-5.20243452 0.04639124 -2.8551249 -0.16794852 0 0 Z " fill="#FFCF15" transform="translate(153,141)"/>
<path d="M0 0 C4.75 0.75 4.75 0.75 7 3 C7.34490322 7.05261287 7.30163882 8.54754176 5 12 C2.5 12.375 2.5 12.375 0 12 C-2.31332486 8.53001271 -2.33957563 7.07490752 -2 3 C-1.34 2.01 -0.68 1.02 0 0 Z " fill="#D8F0F3" transform="translate(136,12)"/>
<path d="M0 0 C-2.66416328 3.14855661 -4.22936731 4.82551713 -8.3125 5.75 C-10.22363723 5.87956863 -12.13603827 6.00388681 -14.05078125 6.05859375 C-16.99364715 6.24148372 -19.33739138 6.4270196 -21.6171875 8.3984375 C-23.17559615 10.21995715 -23.17559615 10.21995715 -25 13 C-25.99 12.01 -26.98 11.02 -28 10 C-23.98408942 5.24535049 -20.79424607 3.97740733 -14.9375 2.8125 C-9.66868363 1.76641 -9.66868363 1.76641 -4.69140625 -0.17578125 C-3 -1 -3 -1 0 0 Z " fill="#FFCF1F" transform="translate(243,146)"/>
<path d="M0 0 C0.66 0.33 1.32 0.66 2 1 C2.23576736 8.62314474 1.83717315 15.58569409 0 23 C-3.08197463 18.37703806 -3.1277141 14.68513877 -3.0625 9.3125 C-3.05798828 8.61060547 -3.05347656 7.90871094 -3.04882812 7.18554688 C-3.03706927 5.45699462 -3.01913454 3.72848635 -3 2 C-2.34 2 -1.68 2 -1 2 C-0.67 1.34 -0.34 0.68 0 0 Z " fill="#E44C56" transform="translate(209,61)"/>
<path d="M0 0 C3.47742987 0 4.00127865 0.51954459 6.625 2.625 C14.16821278 8.44758942 20.6149399 12.76639488 30 15 C29.34 15.66 28.68 16.32 28 17 C22.92250119 16.73158597 18.92653646 14.67188842 14.5625 12.25 C13.90306396 11.88946533 13.24362793 11.52893066 12.56420898 11.1574707 C8.1433051 8.70956841 3.85536589 6.291166 0 3 C0 2.01 0 1.02 0 0 Z " fill="#FAA71E" transform="translate(65,142)"/>
<path d="M0 0 C0.85722656 -0.00515625 1.71445313 -0.0103125 2.59765625 -0.015625 C4.9375 0.25 4.9375 0.25 7.9375 2.25 C6.2875 2.58 4.6375 2.91 2.9375 3.25 C2.9375 4.9 2.9375 6.55 2.9375 8.25 C-1.3525 7.59 -5.6425 6.93 -10.0625 6.25 C-9.0625 2.25 -9.0625 2.25 -7.31640625 1.015625 C-4.75625677 0.14597284 -2.70083897 -0.01629465 0 0 Z " fill="#F7133F" transform="translate(64.0625,74.75)"/>
<path d="M0 0 C0.66796875 1.6953125 0.66796875 1.6953125 1 4 C-0.07421875 6.3671875 -0.07421875 6.3671875 -1.6875 8.875 C-2.24824219 9.75542969 -2.80898437 10.63585937 -3.38671875 11.54296875 C-3.91910156 12.35378906 -4.45148438 13.16460937 -5 14 C-5.66 15.051875 -6.32 16.10375 -7 17.1875 C-9.46193547 20.64959675 -12.18200806 23.82506241 -15 27 C-15.75 25.3125 -15.75 25.3125 -16 23 C-14.2890625 20.6015625 -14.2890625 20.6015625 -12 18 C-10.76627726 16.14160751 -9.55769795 14.2662747 -8.375 12.375 C-6.60987908 9.56159766 -4.84244412 6.76366617 -3 4 C-2.34 4 -1.68 4 -1 4 C-0.67 2.68 -0.34 1.36 0 0 Z " fill="#9D0820" transform="translate(235,110)"/>
<path d="M0 0 C1.49080078 0.02707031 1.49080078 0.02707031 3.01171875 0.0546875 C3.77097656 0.07789063 4.53023437 0.10109375 5.3125 0.125 C3.50837357 3.38960973 2.47855307 5.01429795 -0.6875 7.125 C-3.42740408 7.09356707 -5.97167854 6.57021663 -8.6875 6.125 C-8.6875 4.805 -8.6875 3.485 -8.6875 2.125 C-5.26655758 -0.15562828 -4.00562778 -0.09425007 0 0 Z " fill="#FC7450" transform="translate(131.6875,56.875)"/>
<path d="M0 0 C4.9745353 -0.31090846 8.40430494 0.30528973 13 2.19921875 C15.94105051 3.3767878 18.94409661 4.1723595 22 5 C22 4.34 22 3.68 22 3 C23.32 3 24.64 3 26 3 C26 5.66666667 26 8.33333333 26 11 C25.01 11.495 25.01 11.495 24 12 C23.34 11.67 22.68 11.34 22 11 C22 10.34 22 9.68 22 9 C20.865625 8.731875 19.73125 8.46375 18.5625 8.1875 C17.386875 7.795625 16.21125 7.40375 15 7 C14.67 6.01 14.34 5.02 14 4 C10.74625076 2.96259118 10.74625076 2.96259118 6.9375 2.3125 C5.64714844 2.06113281 4.35679687 1.80976563 3.02734375 1.55078125 C2.02832031 1.36902344 1.02929688 1.18726563 0 1 C0 0.67 0 0.34 0 0 Z " fill="#FF961F" transform="translate(187,143)"/>
<path d="M0 0 C1 1 1 1 1.1875 4.3125 C0.91147541 9.74098361 0.91147541 9.74098361 -1 12 C-4.125 12.75 -4.125 12.75 -7 13 C-7 12.34 -7 11.68 -7 11 C-5.7934375 10.1028125 -5.7934375 10.1028125 -4.5625 9.1875 C-1.70289198 6.7463712 -1.3046813 5.65617562 -1 2 C-5.59306496 3.4859916 -8.43569245 5.85014682 -12 9 C-11.5152439 2.45579268 -11.5152439 2.45579268 -9.375 0.5625 C-6.18400486 -0.19326201 -3.26486366 -0.1848036 0 0 Z " fill="#E2203F" transform="translate(244,66)"/>
<path d="M0 0 C11.92066458 1.06885162 20.66786029 10.03653904 29 18 C28.34 18.66 27.68 19.32 27 20 C26.34773438 19.39671875 25.69546875 18.7934375 25.0234375 18.171875 C19.50157362 13.02582705 19.50157362 13.02582705 13.4375 8.5625 C11 7 11 7 10 5 C6.82954062 3.75938546 4.41761705 3 1 3 C0.67 2.01 0.34 1.02 0 0 Z " fill="#C71632" transform="translate(78,77)"/>
<path d="M0 0 C3.46372523 1.08094546 6.7265006 2.43986412 10 4 C10 4.33 10 4.66 10 5 C7.03 5 4.06 5 1 5 C1 4.34 1 3.68 1 3 C-4.15640472 2.42399311 -4.15640472 2.42399311 -8.8671875 4.11328125 C-10.30861002 5.33745588 -11.66278229 6.66278229 -13 8 C-13.1875 5.125 -13.1875 5.125 -13 2 C-8.70678167 -0.86214555 -5.04215482 -0.60817015 0 0 Z " fill="#A60923" transform="translate(60,86)"/>
<path d="M0 0 C0.99 0.33 1.98 0.66 3 1 C3 2.65 3 4.3 3 6 C2.34 6 1.68 6 1 6 C0.938125 7.299375 0.87625 8.59875 0.8125 9.9375 C-0.07871923 19.08560328 -2.86634304 29.74840341 -7 38 C-8.485 38.495 -8.485 38.495 -10 39 C-9.58942939 35.71543514 -8.65844228 33.2416092 -7.08984375 30.375 C-4.8773618 26.02752761 -3.77518849 21.76063675 -2.8125 17 C-2.64814453 16.24460937 -2.48378906 15.48921875 -2.31445312 14.7109375 C-1.2777448 9.82539706 -0.55827204 4.96241811 0 0 Z " fill="#A20C24" transform="translate(248,66)"/>
<path d="M0 0 C0.598125 0.226875 1.19625 0.45375 1.8125 0.6875 C2.0625 8.3125 2.0625 8.3125 -0.1875 11.6875 C-1.8375 11.3575 -3.4875 11.0275 -5.1875 10.6875 C-5.55141205 3.28795489 -5.55141205 3.28795489 -3.9375 0.625 C-2.1875 -0.3125 -2.1875 -0.3125 0 0 Z " fill="#E5F8FA" transform="translate(114.1875,18.3125)"/>
<path d="M0 0 C0.61101562 0.33 1.22203125 0.66 1.8515625 1 C4.50702189 2.49735155 6.83436058 3.83436058 9 6 C3.58201328 5.30834212 -1.6822785 4.24200752 -7 3 C-7 2.34 -7 1.68 -7 1 C-11.95 1 -16.9 1 -22 1 C-22 0.67 -22 0.34 -22 0 C-19.08462559 -0.38991633 -16.16878665 -0.76239 -13.25 -1.125 C-12.425 -1.23714844 -11.6 -1.34929687 -10.75 -1.46484375 C-9.95078125 -1.56152344 -9.1515625 -1.65820312 -8.328125 -1.7578125 C-7.5949707 -1.8520752 -6.86181641 -1.94633789 -6.10644531 -2.04345703 C-3.57994728 -1.9913341 -2.1639444 -1.26378018 0 0 Z " fill="#FEA11D" transform="translate(177,137)"/>
<path d="M0 0 C0.66 0 1.32 0 2 0 C1.24072178 6.20627416 -2.43341661 9.96576877 -7 14 C-10.5 15.0625 -10.5 15.0625 -13 15 C-11.92151387 11.76454161 -11.31920277 11.2149361 -8.75 9.1875 C-6.26938171 7.15512485 -4.17863403 5.1391782 -2.1875 2.625 C-1.465625 1.75875 -0.74375 0.8925 0 0 Z " fill="#E96863" transform="translate(207,123)"/>
<path d="M0 0 C6.43538595 -0.36426713 6.43538595 -0.36426713 8.9375 1.25 C10 3 10 3 10 7 C8.54077307 6.88590407 7.08259402 6.75834456 5.625 6.625 C4.40683594 6.52058594 4.40683594 6.52058594 3.1640625 6.4140625 C1 6 1 6 -1 4 C-0.625 1.875 -0.625 1.875 0 0 Z " fill="#FE495C" transform="translate(69,78)"/>
<path d="M0 0 C3.55857869 6.35460481 4.32460577 12.62514895 4.25 19.75 C4.25773438 20.50410156 4.26546875 21.25820312 4.2734375 22.03515625 C4.25978202 25.87917457 4.17919812 27.73120282 2 31 C2 26.38 2 21.76 2 17 C1.34 16.67 0.68 16.34 0 16 C-1.34320975 12.55752232 -0.91668206 9.37052768 -0.5625 5.75 C-0.46066406 4.67234375 -0.35882813 3.5946875 -0.25390625 2.484375 C-0.17011719 1.66453125 -0.08632812 0.8446875 0 0 Z " fill="#EE5C65" transform="translate(209,85)"/>
<path d="M0 0 C0.36253776 5.43806647 0.36253776 5.43806647 -1.25 7.9375 C-3 9 -3 9 -5.0625 8.8125 C-7 8 -7 8 -9 6 C-9 4.68 -9 3.36 -9 2 C-2.25 0 -2.25 0 0 0 Z " fill="#1A4774" transform="translate(145,34)"/>
<path d="M0 0 C2.62561109 -0.08074203 5.24875676 -0.1403623 7.875 -0.1875 C8.99455078 -0.22520508 8.99455078 -0.22520508 10.13671875 -0.26367188 C12.3046875 -0.29296875 12.3046875 -0.29296875 16 0 C16.66 0.99 17.32 1.98 18 3 C20.05003955 4.19232613 20.05003955 4.19232613 22 5 C16.49819835 6.44921274 12.81493204 5.35973686 7.625 3.5625 C6.52091797 3.19801758 6.52091797 3.19801758 5.39453125 2.82617188 C3.59236829 2.22935167 1.79559379 1.61630238 0 1 C0 0.67 0 0.34 0 0 Z " fill="#FFC518" transform="translate(90,160)"/>
<path d="M0 0 C1.05960938 0.4640625 2.11921875 0.928125 3.2109375 1.40625 C4.00757813 1.7671875 4.80421875 2.128125 5.625 2.5 C5.625 3.16 5.625 3.82 5.625 4.5 C2.25466566 4.73513961 0.22922331 4.87559828 -2.6875 3.0625 C-5.74921157 1.28243513 -8.19592218 0.81129683 -11.6875 0.3125 C-12.75613281 0.15394531 -13.82476562 -0.00460938 -14.92578125 -0.16796875 C-15.73402344 -0.27753906 -16.54226562 -0.38710937 -17.375 -0.5 C-17.375 -0.83 -17.375 -1.16 -17.375 -1.5 C-10.82621635 -3.04089027 -6.1791021 -2.7462676 0 0 Z " fill="#FE801E" transform="translate(203.375,143.5)"/>
<path d="M0 0 C0.66 0.33 1.32 0.66 2 1 C-10.54596884 16.62014664 -10.54596884 16.62014664 -19 18 C-14.67329187 12.50391129 -9.8667744 8.26447531 -4.390625 3.91796875 C-1.99350905 2.0662068 -1.99350905 2.0662068 0 0 Z " fill="#FFBD12" transform="translate(140,143)"/>
<path d="M0 0 C5.32697239 1.45281065 8.36402802 5.08111378 12 9 C10.625 11 10.625 11 9 13 C8.34 13 7.68 13 7 13 C6.67 10.36 6.34 7.72 6 5 C5.195625 4.731875 4.39125 4.46375 3.5625 4.1875 C2.716875 3.795625 1.87125 3.40375 1 3 C0.67 2.01 0.34 1.02 0 0 Z " fill="#F4757B" transform="translate(90,5)"/>
<path d="M0 0 C0.99 0.33 1.98 0.66 3 1 C3.185625 2.2065625 3.185625 2.2065625 3.375 3.4375 C3.58125 4.283125 3.7875 5.12875 4 6 C4.66 6.33 5.32 6.66 6 7 C6.625 10.0625 6.625 10.0625 7 13 C6.01 13.33 5.02 13.66 4 14 C4 15.98 4 17.96 4 20 C3.67 20 3.34 20 3 20 C2.92652344 18.71416016 2.92652344 18.71416016 2.8515625 17.40234375 C2.45465756 11.33243544 2.00791601 5.75602589 0 0 Z " fill="#E94229" transform="translate(120,114)"/>
<path d="M0 0 C-3 2 -3 2 -5.4375 2.8125 C-9.58107503 4.73269331 -11.4295917 7.71658132 -13.25 11.8125 C-13.4975 12.534375 -13.745 13.25625 -14 14 C-14.33 14 -14.66 14 -15 14 C-14.83818213 9.30728176 -14.61095004 6.09485669 -11.4375 2.5 C-7.77643247 -0.79585155 -4.74491478 -0.49085325 0 0 Z " fill="#FFACB6" transform="translate(84,6)"/>
<path d="M0 0 C0.86560547 0.00451172 1.73121094 0.00902344 2.62304688 0.01367188 C4.72789539 0.02530087 6.83270758 0.04322927 8.9375 0.0625 C8.9375 0.3925 8.9375 0.7225 8.9375 1.0625 C8.24188965 1.1126123 7.5462793 1.16272461 6.82958984 1.21435547 C3.65658498 1.44745478 0.48459693 1.69236679 -2.6875 1.9375 C-3.78191406 2.01613281 -4.87632812 2.09476563 -6.00390625 2.17578125 C-11.29561491 2.59270375 -16.10758778 2.99360683 -21.0625 5.0625 C-20.31225586 3.10913086 -20.31225586 3.10913086 -19.0625 1.0625 C-17.25219727 0.45532227 -17.25219727 0.45532227 -15.06640625 0.31640625 C-14.26219238 0.2611377 -13.45797852 0.20586914 -12.62939453 0.14892578 C-8.41628629 0.00707298 -4.21525619 -0.04251228 0 0 Z " fill="#FDB21A" transform="translate(161.0625,137.9375)"/>
<path d="M0 0 C0.33 0.66 0.66 1.32 1 2 C0.60167969 2.51949219 0.20335937 3.03898438 -0.20703125 3.57421875 C-3.02177323 7.27926842 -5.71385974 10.93575065 -8 15 C-7.01 15.99 -6.02 16.98 -5 18 C-7.475 17.01 -7.475 17.01 -10 16 C-10 11.25787068 -9.27169729 10.74657135 -6.125 7.4375 C-3.82898159 4.99746609 -1.86425789 2.79638683 0 0 Z " fill="#8D0C1C" transform="translate(209,125)"/>
<path d="M0 0 C4.55737263 0.43820891 7.57653445 0.85041169 11 4 C10.34 6.97 9.68 9.94 9 13 C8.67 13 8.34 13 8 13 C7.896875 11.906875 7.79375 10.81375 7.6875 9.6875 C6.95357956 5.55275364 6.95357956 5.55275364 4 3 C1.90010348 1.82425289 1.90010348 1.82425289 0 1 C0 0.67 0 0.34 0 0 Z " fill="#B0162D" transform="translate(239,61)"/>
<path d="M0 0 C2.97 0 5.94 0 9 0 C9 0.99 9 1.98 9 3 C6.04335481 4.4783226 3.25770263 4.06032783 0 4 C0 2.68 0 1.36 0 0 Z " fill="#FD8257" transform="translate(123,59)"/>
<path d="M0 0 C1.10844919 3.32534757 0.84454356 5.62182575 0 9 C-0.33 9 -0.66 9 -1 9 C-1.33 6.69 -1.66 4.38 -2 2 C-3.32 2.33 -4.64 2.66 -6 3 C-6.66 5.31 -7.32 7.62 -8 10 C-9.1875 8.375 -9.1875 8.375 -10 6 C-7.61936948 -0.07060782 -6.31386191 -1.49538835 0 0 Z " fill="#2D3A43" transform="translate(117,17)"/>
<path d="M0 0 C3.14906415 1.41602213 5.49523672 3.13735082 8.0625 5.4375 C8.73410156 6.03433594 9.40570313 6.63117187 10.09765625 7.24609375 C11.7754479 8.79296942 13.40159243 10.37171566 15 12 C14.67 12.99 14.34 13.98 14 15 C12.5 13.625 12.5 13.625 11 12 C11 11.34 11 10.68 11 10 C10.34 10 9.68 10 9 10 C9 9.34 9 8.68 9 8 C8.443125 7.79375 7.88625 7.5875 7.3125 7.375 C4.07498698 5.44999226 2.31768859 2.96149098 0 0 Z " fill="#E76F73" transform="translate(180,13)"/>
<path d="M0 0 C0.23268915 6.28260706 -0.59545452 11.88019467 -2 18 C-2.33 18 -2.66 18 -3 18 C-3 12.39 -3 6.78 -3 1 C-1 0 -1 0 0 0 Z " fill="#D6323F" transform="translate(211,66)"/>
<path d="M0 0 C0.33 0 0.66 0 1 0 C1.03738281 0.90621094 1.07476562 1.81242187 1.11328125 2.74609375 C1.50720141 10.04520269 2.30300838 16.1988907 5 23 C4.34 23.33 3.68 23.66 3 24 C-0.72943753 19.27213037 -0.35415147 14.9177468 -0.1875 9.1875 C-0.17396484 8.30384766 -0.16042969 7.42019531 -0.14648438 6.50976562 C-0.11129217 4.33957977 -0.05748985 2.16970967 0 0 Z " fill="#EC6F70" transform="translate(64,19)"/>
<path d="M0 0 C0.66 0.33 1.32 0.66 2 1 C0.35 2.65 -1.3 4.3 -3 6 C-2.34 6.66 -1.68 7.32 -1 8 C-3.64 8.99 -6.28 9.98 -9 11 C-9.33 10.34 -9.66 9.68 -10 9 C-9.34 9 -8.68 9 -8 9 C-7.79375 8.443125 -7.5875 7.88625 -7.375 7.3125 C-5.44999226 4.07498698 -2.96149098 2.31768859 0 0 Z " fill="#FBA9B4" transform="translate(117,8)"/>
<path d="M0 0 C1.98 0.99 3.96 1.98 6 3 C6 3.99 6 4.98 6 6 C7.32 6 8.64 6 10 6 C9.67 7.32 9.34 8.64 9 10 C7.49147143 8.90751403 5.99337169 7.80061501 4.5 6.6875 C3.24703125 5.76517578 3.24703125 5.76517578 1.96875 4.82421875 C1.3190625 4.22222656 0.669375 3.62023437 0 3 C0 2.01 0 1.02 0 0 Z " fill="#BB0B2A" transform="translate(84,100)"/>
<path d="M0 0 C1.98 0 3.96 0 6 0 C6 1.65 6 3.3 6 5 C4.35 5.33 2.7 5.66 1 6 C0.67 4.02 0.34 2.04 0 0 Z " fill="#3787C8" transform="translate(109,43)"/>
<path d="M0 0 C0.96891192 5.37305699 0.96891192 5.37305699 1 8 C-0.4375 10 -0.4375 10 -2 11 C-2.99 10.34 -3.98 9.68 -5 9 C-4.01 8.67 -3.02 8.34 -2 8 C-1.67 6.35 -1.34 4.7 -1 3 C-2.98 3 -4.96 3 -7 3 C-7.33 3.66 -7.66 4.32 -8 5 C-8 3.68 -8 2.36 -8 1 C-1.125 0 -1.125 0 0 0 Z " fill="#16375C" transform="translate(116,40)"/>
<path d="M0 0 C0.99 0.33 1.98 0.66 3 1 C2.67 1.763125 2.34 2.52625 2 3.3125 C0.66054332 8.25174651 0.83712342 12.91463109 1 18 C0.34 18.33 -0.32 18.66 -1 19 C-1.02690104 16.20826945 -1.04679053 13.41679652 -1.0625 10.625 C-1.07087891 9.8309375 -1.07925781 9.036875 -1.08789062 8.21875 C-1.11328125 2.2265625 -1.11328125 2.2265625 0 0 Z " fill="#FE9398" transform="translate(174,100)"/>
<path d="M0 0 C1 2 1 2 0.109375 5.22265625 C-0.3355496 6.50547776 -0.78905377 7.78534789 -1.25 9.0625 C-1.46785156 9.71283203 -1.68570313 10.36316406 -1.91015625 11.03320312 C-2.578125 12.91015625 -2.578125 12.91015625 -4 16 C-4.99 16.33 -5.98 16.66 -7 17 C-6.39048014 12.12384111 -4.25498927 8.28022491 -2 4 C-1.33055508 2.66805942 -0.66309605 1.33511267 0 0 Z " fill="#97071E" transform="translate(245,88)"/>
<path d="M0 0 C0.33 0 0.66 0 1 0 C1.33 1.98 1.66 3.96 2 6 C2.33 6 2.66 6 3 6 C3 11.61 3 17.22 3 23 C1 21 1 21 0.83984375 18.43359375 C0.87207031 17.44488281 0.90429688 16.45617187 0.9375 15.4375 C0.99168936 13.62569047 1.02036523 11.81250532 1 10 C0.67 9.67 0.34 9.34 0 9 C-0.07179964 7.48071962 -0.08392007 5.95832518 -0.0625 4.4375 C-0.05347656 3.61121094 -0.04445313 2.78492188 -0.03515625 1.93359375 C-0.02355469 1.29550781 -0.01195313 0.65742188 0 0 Z " fill="#FE898D" transform="translate(66,18)"/>
<path d="M0 0 C0 3 0 3 -1.3125 4.38671875 C-2.875 5.59114583 -4.4375 6.79557292 -6 8 C-6.66 6.68 -7.32 5.36 -8 4 C-5.53721199 1.53721199 -3.29323018 1.00228745 0 0 Z " fill="#720612" transform="translate(222,137)"/>
<path d="M0 0 C0.33 0.99 0.66 1.98 1 3 C-3.70648464 11.06825939 -3.70648464 11.06825939 -8 12.8125 C-10 13 -10 13 -13 11 C-12.113125 10.773125 -11.22625 10.54625 -10.3125 10.3125 C-5.77621347 8.51510345 -3.0914334 5.9230017 -0.6875 1.6875 C-0.460625 1.130625 -0.23375 0.57375 0 0 Z " fill="#FEB2BD" transform="translate(138,54)"/>
<path d="M0 0 C1.32 0 2.64 0 4 0 C3.67 1.65 3.34 3.3 3 5 C1.68 5.33 0.36 5.66 -1 6 C-1.33 4.68 -1.66 3.36 -2 2 C-1.34 2 -0.68 2 0 2 C0 1.34 0 0.68 0 0 Z " fill="#3F96DA" transform="translate(140,37)"/>
<path d="M0 0 C0.66 0 1.32 0 2 0 C0.84826645 2.46800047 -0.04783565 4.04783565 -2 6 C-3.98821313 6.39764263 -5.98944339 6.73775349 -8 7 C-7 4 -7 4 -4 2.375 C-3.01 1.92125 -2.02 1.4675 -1 1 C-0.67 0.67 -0.34 0.34 0 0 Z " fill="#F46E5E" transform="translate(202,131)"/>
<path d="M0 0 C-5.61 -0.66 -11.22 -1.32 -17 -2 C-17 -2.33 -17 -2.66 -17 -3 C-15.11261038 -3.47259995 -13.21433019 -3.9018515 -11.3125 -4.3125 C-9.72888672 -4.67794922 -9.72888672 -4.67794922 -8.11328125 -5.05078125 C-5 -5 -5 -5 0 0 Z " fill="#F65D29" transform="translate(202,143)"/>
<path d="M0 0 C2.97 0.99 5.94 1.98 9 3 C9 3.66 9 4.32 9 5 C9.66 5 10.32 5 11 5 C11 5.66 11 6.32 11 7 C9.35 6.67 7.7 6.34 6 6 C6 5.34 6 4.68 6 4 C5.01 4 4.02 4 3 4 C3 3.34 3 2.68 3 2 C2.01 1.67 1.02 1.34 0 1 C0 0.67 0 0.34 0 0 Z " fill="#D00D31" transform="translate(71,88)"/>
<path d="M0 0 C-0.58265625 0.26554687 -1.1653125 0.53109375 -1.765625 0.8046875 C-4.06174228 2.03302996 -5.80356018 3.40314939 -7.75 5.125 C-8.36359375 5.66382812 -8.9771875 6.20265625 -9.609375 6.7578125 C-10.06828125 7.16773437 -10.5271875 7.57765625 -11 8 C-10.8125 5.6875 -10.8125 5.6875 -10 3 C-6.66753954 0.31551796 -4.23795734 -0.36325349 0 0 Z " fill="#EA2645" transform="translate(243,67)"/>
<path d="M0 0 C5.28798182 0.41474367 8.11690718 1.35224614 12 5 C11.071875 4.835 10.14375 4.67 9.1875 4.5 C6.04378647 3.92251612 6.04378647 3.92251612 3 4 C2.01 3.34 1.02 2.68 0 2 C0 1.34 0 0.68 0 0 Z " fill="#DB1A3A" transform="translate(78,77)"/>
<path d="M0 0 C0.99 1.32 1.98 2.64 3 4 C2.01 4.99 1.02 5.98 0 7 C-0.66 6.67 -1.32 6.34 -2 6 C-2 5.34 -2 4.68 -2 4 C-2.66 3.67 -3.32 3.34 -4 3 C-2.68 3 -1.36 3 0 3 C0 2.01 0 1.02 0 0 Z " fill="#FFA31F" transform="translate(211,148)"/>
<path d="M0 0 C1.2065625 0.0309375 1.2065625 0.0309375 2.4375 0.0625 C2.7675 1.3825 3.0975 2.7025 3.4375 4.0625 C0.4675 3.5675 0.4675 3.5675 -2.5625 3.0625 C-2.8925 3.7225 -3.2225 4.3825 -3.5625 5.0625 C-4.2225 5.0625 -4.8825 5.0625 -5.5625 5.0625 C-3.15007962 0.07683121 -3.15007962 0.07683121 0 0 Z " fill="#292B32" transform="translate(138.5625,9.9375)"/>
<path d="M0 0 C2.31 0 4.62 0 7 0 C7.33 0.66 7.66 1.32 8 2 C6.02 2 4.04 2 2 2 C2.33 3.32 2.66 4.64 3 6 C1.68 5.34 0.36 4.68 -1 4 C-0.67 2.68 -0.34 1.36 0 0 Z " fill="#FB3B54" transform="translate(69,78)"/>
<path d="M0 0 C0.33 0 0.66 0 1 0 C1.66 2.97 2.32 5.94 3 9 C1.68 9.99 0.36 10.98 -1 12 C-0.67 8.04 -0.34 4.08 0 0 Z " fill="#FF8993" transform="translate(95,10)"/>
<path d="M0 0 C1.65 1.65 3.3 3.3 5 5 C3.02 5.99 3.02 5.99 1 7 C0.67 4.69 0.34 2.38 0 0 Z " fill="#FE7C84" transform="translate(96,11)"/>
<path d="M0 0 C2.0625 0.4375 2.0625 0.4375 4 1 C1.03 3.475 1.03 3.475 -2 6 C-1.125 1.125 -1.125 1.125 0 0 Z " fill="#9E0820" transform="translate(49,88)"/>
<path d="M0 0 C0.66 0 1.32 0 2 0 C3.0064275 1.66279327 4.00585407 3.32983484 5 5 C5.99 5.66 6.98 6.32 8 7 C6.68 7.33 5.36 7.66 4 8 C0 2.25 0 2.25 0 0 Z " fill="#222838" transform="translate(134,37)"/>
<path d="M0 0 C2.95409701 1.37154504 5.44008376 2.98863724 8 5 C7.01 5.495 7.01 5.495 6 6 C3.96166576 4.7260411 1.96147874 3.38938077 0 2 C0 1.34 0 0.68 0 0 Z " fill="#F3991E" transform="translate(74,148)"/>
<path d="M0 0 C3.465 1.485 3.465 1.485 7 3 C7 3.66 7 4.32 7 5 C4.625 4.75 4.625 4.75 2 4 C0.6875 1.9375 0.6875 1.9375 0 0 Z " fill="#FB671F" transform="translate(202,143)"/>
<path d="M0 0 C2.4294516 3.6441774 2.16179575 5.71241272 2 10 C1.67 8.68 1.34 7.36 1 6 C0.01 6 -0.98 6 -2 6 C-2 5.34 -2 4.68 -2 4 C-1.34 4 -0.68 4 0 4 C0 2.68 0 1.36 0 0 Z " fill="#FB6860" transform="translate(170,106)"/>
<path d="M0 0 C0.66 1.32 1.32 2.64 2 4 C2.66 4 3.32 4 4 4 C4.33 5.65 4.66 7.3 5 9 C4.01 8.67 3.02 8.34 2 8 C0.5522078 5.10441559 0 3.25811062 0 0 Z " fill="#E36763" transform="translate(65,39)"/>
<path d="M0 0 C0.99 0.33 1.98 0.66 3 1 C2.67 1.66 2.34 2.32 2 3 C1.34 2.01 0.68 1.02 0 0 Z " fill="#FF4E5F" transform="translate(247,61)"/>
<path d="" fill="#FF4E5F" transform="translate(0,0)"/>
<path d="" fill="#FF4E5F" transform="translate(0,0)"/>
</svg>
